<svg xmlns="http://www.w3.org/2000/svg" version="1.1" xmlns:xlink="http://www.w3.org/1999/xlink" width="2000" height="2000" preserveAspectRatio="none" viewBox="0 0 2000 2000"><g mask="url(&quot;#SvgjsMask1058&quot;)" fill="none"><rect width="2000" height="2000" x="0" y="0" fill="rgba(149, 165, 167, 1)"></rect><path d="M1089 1270L2068 291" stroke-width="10" stroke="url(&quot;#SvgjsLinearGradient1059&quot;)" stroke-linecap="round" class="TopRight"></path><path d="M267 1295L-298 1860" stroke-width="10" stroke="url(&quot;#SvgjsLinearGradient1059&quot;)" stroke-linecap="round" class="TopRight"></path><path d="M509 1494L1485 518" stroke-width="6" stroke="url(&quot;#SvgjsLinearGradient1059&quot;)" stroke-linecap="round" class="TopRight"></path><path d="M50 225L1287 -1012" stroke-width="8" stroke="url(&quot;#SvgjsLinearGradient1059&quot;)" stroke-linecap="round" class="TopRight"></path><path d="M1968 1963L475 3456" stroke-width="6" stroke="url(&quot;#SvgjsLinearGradient1060&quot;)" stroke-linecap="round" class="BottomLeft"></path><path d="M912 1145L-5 2062" stroke-width="10" stroke="url(&quot;#SvgjsLinearGradient1059&quot;)" stroke-linecap="round" class="TopRight"></path><path d="M945 1570L-273 2788" stroke-width="10" stroke="url(&quot;#SvgjsLinearGradient1059&quot;)" stroke-linecap="round" class="TopRight"></path><path d="M1220 497L274 1443" stroke-width="6" stroke="url(&quot;#SvgjsLinearGradient1059&quot;)" stroke-linecap="round" class="TopRight"></path><path d="M1053 1094L1581 566" stroke-width="6" stroke="url(&quot;#SvgjsLinearGradient1060&quot;)" stroke-linecap="round" class="BottomLeft"></path><path d="M1346 1471L1979 838" stroke-width="6" stroke="url(&quot;#SvgjsLinearGradient1060&quot;)" stroke-linecap="round" class="BottomLeft"></path><path d="M1422 1254L2708 -32" stroke-width="8" stroke="url(&quot;#SvgjsLinearGradient1060&quot;)" stroke-linecap="round" class="BottomLeft"></path><path d="M872 1913L1804 981" stroke-width="8" stroke="url(&quot;#SvgjsLinearGradient1060&quot;)" stroke-linecap="round" class="BottomLeft"></path><path d="M893 1544L1983 454" stroke-width="6" stroke="url(&quot;#SvgjsLinearGradient1059&quot;)" stroke-linecap="round" class="TopRight"></path><path d="M1072 757L1880 -51" stroke-width="10" stroke="url(&quot;#SvgjsLinearGradient1059&quot;)" stroke-linecap="round" class="TopRight"></path><path d="M1793 641L2789 -355" stroke-width="10" stroke="url(&quot;#SvgjsLinearGradient1059&quot;)" stroke-linecap="round" class="TopRight"></path><path d="M1442 1526L480 2488" stroke-width="8" stroke="url(&quot;#SvgjsLinearGradient1059&quot;)" stroke-linecap="round" class="TopRight"></path><path d="M1688 1374L2247 815" stroke-width="8" stroke="url(&quot;#SvgjsLinearGradient1059&quot;)" stroke-linecap="round" class="TopRight"></path><path d="M1872 1619L825 2666" stroke-width="8" stroke="url(&quot;#SvgjsLinearGradient1060&quot;)" stroke-linecap="round" class="BottomLeft"></path><path d="M1719 1670L446 2943" stroke-width="6" stroke="url(&quot;#SvgjsLinearGradient1060&quot;)" stroke-linecap="round" class="BottomLeft"></path><path d="M1881 1742L401 3222" stroke-width="8" stroke="url(&quot;#SvgjsLinearGradient1060&quot;)" stroke-linecap="round" class="BottomLeft"></path><path d="M1267 578L-163 2008" stroke-width="8" stroke="url(&quot;#SvgjsLinearGradient1060&quot;)" stroke-linecap="round" class="BottomLeft"></path><path d="M141 563L-830 1534" stroke-width="6" stroke="url(&quot;#SvgjsLinearGradient1059&quot;)" stroke-linecap="round" class="TopRight"></path><path d="M379 1341L1869 -149" stroke-width="8" stroke="url(&quot;#SvgjsLinearGradient1060&quot;)" stroke-linecap="round" class="BottomLeft"></path><path d="M518 210L-802 1530" stroke-width="8" stroke="url(&quot;#SvgjsLinearGradient1060&quot;)" stroke-linecap="round" class="BottomLeft"></path><path d="M424 97L-87 608" stroke-width="6" stroke="url(&quot;#SvgjsLinearGradient1059&quot;)" stroke-linecap="round" class="TopRight"></path><path d="M42 1205L856 391" stroke-width="6" stroke="url(&quot;#SvgjsLinearGradient1059&quot;)" stroke-linecap="round" class="TopRight"></path><path d="M1599 441L779 1261" stroke-width="6" stroke="url(&quot;#SvgjsLinearGradient1059&quot;)" stroke-linecap="round" class="TopRight"></path><path d="M1696 99L2962 -1167" stroke-width="6" stroke="url(&quot;#SvgjsLinearGradient1059&quot;)" stroke-linecap="round" class="TopRight"></path><path d="M32 246L-1084 1362" stroke-width="8" stroke="url(&quot;#SvgjsLinearGradient1060&quot;)" stroke-linecap="round" class="BottomLeft"></path><path d="M1954 1490L976 2468" stroke-width="6" stroke="url(&quot;#SvgjsLinearGradient1060&quot;)" stroke-linecap="round" class="BottomLeft"></path><path d="M528 1446L-413 2387" stroke-width="6" stroke="url(&quot;#SvgjsLinearGradient1059&quot;)" stroke-linecap="round" class="TopRight"></path><path d="M767 1750L1719 798" stroke-width="8" stroke="url(&quot;#SvgjsLinearGradient1059&quot;)" stroke-linecap="round" class="TopRight"></path><path d="M565 1343L2018 -110" stroke-width="6" stroke="url(&quot;#SvgjsLinearGradient1060&quot;)" stroke-linecap="round" class="BottomLeft"></path><path d="M1755 1505L2302 958" stroke-width="8" stroke="url(&quot;#SvgjsLinearGradient1059&quot;)" stroke-linecap="round" class="TopRight"></path><path d="M1942 1953L825 3070" stroke-width="6" stroke="url(&quot;#SvgjsLinearGradient1060&quot;)" stroke-linecap="round" class="BottomLeft"></path><path d="M261 1144L-1170 2575" stroke-width="6" stroke="url(&quot;#SvgjsLinearGradient1060&quot;)" stroke-linecap="round" class="BottomLeft"></path><path d="M1494 25L616 903" stroke-width="8" stroke="url(&quot;#SvgjsLinearGradient1060&quot;)" stroke-linecap="round" class="BottomLeft"></path><path d="M522 65L-293 880" stroke-width="6" stroke="url(&quot;#SvgjsLinearGradient1059&quot;)" stroke-linecap="round" class="TopRight"></path><path d="M1439 1411L2186 664" stroke-width="8" stroke="url(&quot;#SvgjsLinearGradient1060&quot;)" stroke-linecap="round" class="BottomLeft"></path><path d="M1759 1959L293 3425" stroke-width="6" stroke="url(&quot;#SvgjsLinearGradient1060&quot;)" stroke-linecap="round" class="BottomLeft"></path><path d="M994 722L1719 -3" stroke-width="6" stroke="url(&quot;#SvgjsLinearGradient1060&quot;)" stroke-linecap="round" class="BottomLeft"></path><path d="M1981 398L1204 1175" stroke-width="6" stroke="url(&quot;#SvgjsLinearGradient1059&quot;)" stroke-linecap="round" class="TopRight"></path><path d="M979 20L54 945" stroke-width="10" stroke="url(&quot;#SvgjsLinearGradient1059&quot;)" stroke-linecap="round" class="TopRight"></path><path d="M364 1399L-330 2093" stroke-width="8" stroke="url(&quot;#SvgjsLinearGradient1059&quot;)" stroke-linecap="round" class="TopRight"></path><path d="M1321 25L2684 -1338" stroke-width="6" stroke="url(&quot;#SvgjsLinearGradient1060&quot;)" stroke-linecap="round" class="BottomLeft"></path><path d="M349 1215L-561 2125" stroke-width="6" stroke="url(&quot;#SvgjsLinearGradient1059&quot;)" stroke-linecap="round" class="TopRight"></path><path d="M1709 1615L2447 877" stroke-width="8" stroke="url(&quot;#SvgjsLinearGradient1060&quot;)" stroke-linecap="round" class="BottomLeft"></path><path d="M1913 378L3037 -746" stroke-width="8" stroke="url(&quot;#SvgjsLinearGradient1059&quot;)" stroke-linecap="round" class="TopRight"></path><path d="M1036 770L1965 -159" stroke-width="8" stroke="url(&quot;#SvgjsLinearGradient1059&quot;)" stroke-linecap="round" class="TopRight"></path><path d="M1747 516L512 1751" stroke-width="10" stroke="url(&quot;#SvgjsLinearGradient1060&quot;)" stroke-linecap="round" class="BottomLeft"></path><path d="M823 264L-261 1348" stroke-width="10" stroke="url(&quot;#SvgjsLinearGradient1059&quot;)" stroke-linecap="round" class="TopRight"></path><path d="M1043 812L2084 -229" stroke-width="6" stroke="url(&quot;#SvgjsLinearGradient1059&quot;)" stroke-linecap="round" class="TopRight"></path><path d="M1231 180L2667 -1256" stroke-width="8" stroke="url(&quot;#SvgjsLinearGradient1060&quot;)" stroke-linecap="round" class="BottomLeft"></path><path d="M1530 344L2263 -389" stroke-width="6" stroke="url(&quot;#SvgjsLinearGradient1059&quot;)" stroke-linecap="round" class="TopRight"></path><path d="M933 398L356 975" stroke-width="10" stroke="url(&quot;#SvgjsLinearGradient1060&quot;)" stroke-linecap="round" class="BottomLeft"></path><path d="M574 241L33 782" stroke-width="10" stroke="url(&quot;#SvgjsLinearGradient1060&quot;)" stroke-linecap="round" class="BottomLeft"></path><path d="M1554 1972L400 3126" stroke-width="8" stroke="url(&quot;#SvgjsLinearGradient1059&quot;)" stroke-linecap="round" class="TopRight"></path><path d="M1250 1329L2109 470" stroke-width="10" stroke="url(&quot;#SvgjsLinearGradient1059&quot;)" stroke-linecap="round" class="TopRight"></path><path d="M1016 1312L47 2281" stroke-width="10" stroke="url(&quot;#SvgjsLinearGradient1060&quot;)" stroke-linecap="round" class="BottomLeft"></path><path d="M1654 822L198 2278" stroke-width="10" stroke="url(&quot;#SvgjsLinearGradient1059&quot;)" stroke-linecap="round" class="TopRight"></path><path d="M1570 21L705 886" stroke-width="8" stroke="url(&quot;#SvgjsLinearGradient1059&quot;)" stroke-linecap="round" class="TopRight"></path><path d="M1631 1463L526 2568" stroke-width="8" stroke="url(&quot;#SvgjsLinearGradient1060&quot;)" stroke-linecap="round" class="BottomLeft"></path><path d="M435 1608L-676 2719" stroke-width="6" stroke="url(&quot;#SvgjsLinearGradient1059&quot;)" stroke-linecap="round" class="TopRight"></path><path d="M907 1319L2316 -90" stroke-width="8" stroke="url(&quot;#SvgjsLinearGradient1060&quot;)" stroke-linecap="round" class="BottomLeft"></path><path d="M5 524L1212 -683" stroke-width="10" stroke="url(&quot;#SvgjsLinearGradient1059&quot;)" stroke-linecap="round" class="TopRight"></path><path d="M457 1997L-345 2799" stroke-width="10" stroke="url(&quot;#SvgjsLinearGradient1060&quot;)" stroke-linecap="round" class="BottomLeft"></path><path d="M396 557L1606 -653" stroke-width="10" stroke="url(&quot;#SvgjsLinearGradient1060&quot;)" stroke-linecap="round" class="BottomLeft"></path><path d="M1650 1871L1093 2428" stroke-width="10" stroke="url(&quot;#SvgjsLinearGradient1060&quot;)" stroke-linecap="round" class="BottomLeft"></path><path d="M477 1951L-551 2979" stroke-width="10" stroke="url(&quot;#SvgjsLinearGradient1059&quot;)" stroke-linecap="round" class="TopRight"></path><path d="M1592 649L2436 -195" stroke-width="8" stroke="url(&quot;#SvgjsLinearGradient1060&quot;)" stroke-linecap="round" class="BottomLeft"></path><path d="M231 1212L-436 1879" stroke-width="8" stroke="url(&quot;#SvgjsLinearGradient1060&quot;)" stroke-linecap="round" class="BottomLeft"></path></g><defs><mask id="SvgjsMask1058"><rect width="2000" height="2000" fill="#ffffff"></rect></mask><linearGradient x1="0%" y1="100%" x2="100%" y2="0%" id="SvgjsLinearGradient1059"><stop stop-color="rgba(255, 255, 255, 0)" offset="0"></stop><stop stop-color="rgba(255, 255, 255, 1)" offset="1"></stop></linearGradient><linearGradient x1="100%" y1="0%" x2="0%" y2="100%" id="SvgjsLinearGradient1060"><stop stop-color="rgba(255, 255, 255, 0)" offset="0"></stop><stop stop-color="rgba(255, 255, 255, 1)" offset="1"></stop></linearGradient></defs></svg>