<svg xmlns="http://www.w3.org/2000/svg" version="1.1" xmlns:xlink="http://www.w3.org/1999/xlink" width="2000" height="2000" preserveAspectRatio="none" viewBox="0 0 2000 2000"><g mask="url(&quot;#SvgjsMask1196&quot;)" fill="none"><rect width="2000" height="2000" x="0" y="0" fill="url(&quot;#SvgjsLinearGradient1197&quot;)"></rect><path d="M2000 0L1792.52 0L2000 465.24z" fill="rgba(255, 255, 255, .1)"></path><path d="M1792.52 0L2000 465.24L2000 628.65L893.71 0z" fill="rgba(255, 255, 255, .075)"></path><path d="M893.71 0L2000 628.65L2000 644.36L618.1400000000001 0z" fill="rgba(255, 255, 255, .05)"></path><path d="M618.1400000000001 0L2000 644.36L2000 1268.3200000000002L560.7600000000001 0z" fill="rgba(255, 255, 255, .025)"></path><path d="M0 2000L401.63 2000L0 1561.03z" fill="rgba(0, 0, 0, .1)"></path><path d="M0 1561.03L401.63 2000L792.16 2000L0 811.11z" fill="rgba(0, 0, 0, .075)"></path><path d="M0 811.1100000000001L792.16 2000L1360.02 2000L0 577.3600000000001z" fill="rgba(0, 0, 0, .05)"></path><path d="M0 577.3600000000001L1360.02 2000L1615.09 2000L0 514.3300000000002z" fill="rgba(0, 0, 0, .025)"></path></g><defs><mask id="SvgjsMask1196"><rect width="2000" height="2000" fill="#ffffff"></rect></mask><linearGradient x1="100%" y1="0%" x2="0%" y2="100%" gradientUnits="userSpaceOnUse" id="SvgjsLinearGradient1197"><stop stop-color="#0e2a47" offset="0"></stop><stop stop-color="rgba(155, 166, 179, 1)" offset="1"></stop></linearGradient></defs></svg>